HIERARCHY
ROOT root
{
	OFFSET 0.000000 0.000000 0.000000
	CHANNELS 6 Xposition Yposition Zposition Zrotation Yrotation Xrotation
	JOINT lhip
	{
		OFFSET 0.058581 -0.082280 -0.017664
		CHANNELS 3 Zrotation Yrotation Xrotation
		JOINT lknee
		{
			OFFSET 0.043451 -0.386469 0.008037
			CHANNELS 3 Zrotation Yrotation Xrotation
			JOINT lankle
			{
				OFFSET -0.014790 -0.426874 -0.037428
				CHANNELS 3 Zrotation Yrotation Xrotation
				JOINT ltoe
				{
					OFFSET 0.041054 -0.060286 0.122042
					CHANNELS 3 Zrotation Yrotation Xrotation
					End Site
					{
						OFFSET 0.000000 0.000000 0.000000
					}
				}
			}
		}
	}
	JOINT rhip
	{
		OFFSET -0.060310 -0.090513 -0.013543
		CHANNELS 3 Zrotation Yrotation Xrotation
		JOINT rknee
		{
			OFFSET -0.043257 -0.383688 -0.004843
			CHANNELS 3 Zrotation Yrotation Xrotation
			JOINT rankle
			{
				OFFSET 0.019056 -0.420046 -0.034562
				CHANNELS 3 Zrotation Yrotation Xrotation
				JOINT rtoe
				{
					OFFSET -0.034840 -0.062106 0.130323
					CHANNELS 3 Zrotation Yrotation Xrotation
					End Site
					{
						OFFSET 0.000000 0.000000 0.000000
					}
				}
			}
		}
	}
	JOINT lowerback
	{
		OFFSET 0.004439 0.124404 -0.038385
		CHANNELS 3 Zrotation Yrotation Xrotation
		JOINT upperback
		{
			OFFSET 0.004488 0.137956 0.026820
			CHANNELS 3 Zrotation Yrotation Xrotation
			JOINT chest
			{
				OFFSET -0.002265 0.056032 0.002855
				CHANNELS 3 Zrotation Yrotation Xrotation
				JOINT lowerneck
				{
					OFFSET -0.013390 0.211636 -0.033468
					CHANNELS 3 Zrotation Yrotation Xrotation
					JOINT upperneck
					{
						OFFSET 0.010113 0.088937 0.050410
						CHANNELS 3 Zrotation Yrotation Xrotation
						End Site
						{
							OFFSET 0.000000 0.000000 0.000000
						}
					}
				}
				JOINT lclavicle
				{
					OFFSET 0.071702 0.114000 -0.018898
					CHANNELS 3 Zrotation Yrotation Xrotation
					JOINT lshoulder
					{
						OFFSET 0.122921 0.045205 -0.019046
						CHANNELS 3 Zrotation Yrotation Xrotation
						JOINT lelbow
						{
							OFFSET 0.255332 -0.015649 -0.022946
							CHANNELS 3 Zrotation Yrotation Xrotation
							JOINT lwrist
							{
								OFFSET 0.265709 0.012698 -0.007375
								CHANNELS 3 Zrotation Yrotation Xrotation
								End Site
								{
									OFFSET 0.000000 0.000000 0.000000
								}
							}
						}
					}
				}
				JOINT rclavicle
				{
					OFFSET -0.082954 0.112472 -0.023707
					CHANNELS 3 Zrotation Yrotation Xrotation
					JOINT rshoulder
					{
						OFFSET -0.113228 0.046853 -0.008472
						CHANNELS 3 Zrotation Yrotation Xrotation
						JOINT relbow
						{
							OFFSET -0.260127 -0.014369 -0.031269
							CHANNELS 3 Zrotation Yrotation Xrotation
							JOINT rwrist
							{
								OFFSET -0.269108 0.006794 -0.006027
								CHANNELS 3 Zrotation Yrotation Xrotation
								End Site
								{
									OFFSET 0.000000 0.000000 0.000000
								}
							}
						}
					}
				}
			}
		}
	}
}
MOTION
Frames: 14
Frame Time: 0.033333
-0.067892 0.354176 0.996981 -4.453680 -2.585493 96.502631 5.764200 5.225154 -4.502762 -3.855377 0.121788 2.111349 -4.627065 -0.586080 -5.932680 0.000000 -0.000000 0.000000 -4.080456 -4.261436 -4.213641 1.478939 -6.980509 -1.736286 2.676118 -8.230211 -7.185854 0.000000 -0.000000 0.000000 0.495261 -1.339102 -6.505568 2.801220 -2.772562 6.345672 1.774464 -1.925374 -1.248212 -2.558834 -10.753871 -6.624738 -1.810324 -8.875050 -3.534224 -29.067317 5.711957 10.350375 -64.731109 -7.178547 8.873664 10.563468 -29.495886 1.674555 3.285071 -11.519548 -21.160240 28.079079 0.941017 7.223963 47.173607 10.161842 2.197315 -8.536028 10.976430 -17.704402 -1.900250 13.114671 -20.596995 
-0.056325 0.352691 0.995276 -3.429980 -1.811776 96.868774 4.987311 4.491479 -4.543738 -3.183885 0.587953 0.696972 -2.851404 0.995876 -6.508357 0.000000 -0.000000 0.000000 -3.807986 -4.183973 -4.384100 1.219413 -7.554211 -1.830417 2.791529 -9.367256 -7.072540 0.000000 -0.000000 0.000000 0.311847 -1.452019 -6.826830 2.688045 -2.943762 6.244374 1.819087 -2.036473 -1.368791 -1.853120 -9.560814 -7.667009 -1.366144 -7.246188 -3.356358 -29.268594 5.117158 10.516331 -64.982972 -7.400019 9.590219 9.314476 -27.530433 2.931717 6.352481 -11.353650 -21.029972 27.782489 0.487614 7.245462 49.437073 8.470186 4.474104 -7.313122 13.989864 -13.625443 -3.223919 14.174311 -22.172778 
-0.044909 0.351127 0.994353 -3.040845 -1.139866 97.182411 4.089589 3.949743 -4.603294 -2.347059 0.015160 -0.209155 -1.026948 2.856102 -6.960678 0.000000 -0.000000 0.000000 -3.509554 -4.149542 -4.619712 0.764676 -7.567547 -1.877582 2.724609 -10.023167 -6.802445 0.000000 -0.000000 0.000000 0.297084 -1.304572 -7.252398 2.275853 -2.874593 6.054072 1.732249 -2.152791 -1.219826 -1.551402 -8.657543 -8.211918 -0.313117 -5.450398 -3.868246 -29.149580 4.301475 11.118801 -65.215539 -7.187862 9.786453 9.427817 -26.843140 2.895555 9.187667 -10.776960 -21.687806 27.185550 0.797357 7.772609 52.249675 7.329091 5.762659 -6.707990 15.383656 -13.167084 -4.521295 14.519217 -25.527807 
-0.033236 0.350902 0.993594 -3.466521 -0.539223 97.390946 3.515761 3.811546 -4.715908 -2.011195 -0.027467 -0.445457 0.208870 3.893990 -7.607823 0.000000 -0.000000 0.000000 -3.416853 -4.226515 -5.157761 0.395929 -7.136570 -1.507258 2.860610 -9.611194 -6.647464 0.000000 -0.000000 0.000000 0.368930 -1.094641 -6.862553 1.848598 -2.425705 5.188569 1.629470 -1.892453 -1.165542 -1.269088 -7.539808 -9.117398 0.146218 -4.203462 -3.398352 -28.957433 4.207121 10.876954 -64.964690 -6.601959 9.568475 9.027812 -26.454653 2.428005 10.123952 -10.934564 -22.463575 26.617207 1.055448 8.035554 54.539398 6.810987 6.439165 -6.005584 15.300518 -13.772172 -4.225057 14.332404 -28.004439 
-0.020976 0.350230 0.993082 -3.786754 -0.053387 97.339942 3.306519 3.592003 -4.484760 -2.086769 -0.516789 -0.571377 1.138124 4.133706 -8.433866 0.000000 -0.000000 0.000000 -3.628495 -3.923915 -5.309227 0.170293 -6.812799 -1.137173 2.696758 -10.041579 -6.364451 0.000000 -0.000000 0.000000 0.195765 -1.005290 -7.230958 1.666297 -1.969434 5.785803 1.651929 -1.562200 -1.163303 -1.178238 -6.933740 -9.821230 0.324853 -3.004577 -3.533364 -29.081730 3.894681 10.608238 -64.474752 -6.549990 9.389768 9.081783 -25.965706 2.616758 10.136398 -10.873470 -21.713501 26.607570 1.578446 8.307817 55.437375 7.129357 6.656107 -5.830507 14.740675 -13.948439 -3.228703 13.897677 -28.222374 
-0.009497 0.349524 0.992998 -3.775033 0.481930 97.372671 3.403649 3.544587 -4.443453 -2.481057 -0.974625 -0.729237 1.727775 3.955080 -8.698787 0.000000 -0.000000 0.000000 -3.511926 -3.693452 -5.739201 -0.183142 -6.609300 -0.441476 2.256168 -10.760716 -6.611368 0.000000 -0.000000 0.000000 0.112514 -0.976323 -7.118841 1.707880 -1.642768 5.656090 1.590879 -1.563924 -1.322859 -0.946891 -5.719314 -10.654169 0.038943 -2.336702 -3.229106 -29.344711 4.175799 10.159783 -63.640694 -6.259314 9.158876 9.308069 -25.661518 3.320240 9.125667 -11.585506 -20.890908 27.015640 1.761959 8.439883 55.526744 7.584498 7.194927 -6.725192 13.916970 -13.671613 -3.447396 14.004545 -26.113674 
0.001592 0.349508 0.993368 -3.921854 1.142159 97.597287 3.339630 3.813694 -4.740875 -2.596525 -1.166794 -0.775496 2.517255 4.040912 -8.758950 0.000000 -0.000000 0.000000 -3.280007 -4.106524 -6.872303 -0.290067 -5.971139 0.922715 1.808913 -10.980120 -6.952458 0.000000 -0.000000 0.000000 0.439439 -0.956004 -7.081890 1.725979 -1.323371 5.159378 1.459935 -1.488430 -1.454736 -0.931520 -4.993328 -11.162146 -0.574419 -1.446296 -2.678286 -29.660065 4.509341 9.799962 -62.747818 -6.002298 8.890880 9.777165 -24.919755 4.198575 8.247277 -11.937401 -20.424057 27.389125 1.913242 8.418982 54.573965 8.324097 7.002901 -6.926499 11.973801 -13.972080 -1.958502 14.048368 -25.424752 
0.011820 0.348558 0.993976 -3.881928 1.622317 97.497117 3.260360 3.437602 -4.553677 -2.759559 -1.410300 -0.920640 2.902827 4.626406 -9.086286 0.000000 -0.000000 0.000000 -3.416515 -3.575551 -7.165845 -0.072070 -5.692446 1.948899 1.457180 -11.410968 -7.768154 0.000000 -0.000000 0.000000 0.774927 -1.062480 -7.132735 1.665078 -1.148522 4.839053 1.304858 -1.424078 -1.312167 -1.076458 -4.447315 -11.128417 -0.879298 -0.784955 -2.557841 -29.692715 4.660581 9.688032 -62.103718 -5.698662 8.553508 10.526318 -24.444579 3.356003 7.928915 -11.851297 -20.498120 27.561477 1.905302 8.381262 53.501204 8.675651 6.456197 -6.925048 11.103963 -14.824362 -2.076245 14.002876 -26.009720 
0.019704 0.348655 0.995082 -3.863590 2.277321 97.485658 3.574218 3.440422 -4.648682 -2.948599 -1.573785 -0.789184 3.028505 4.518822 -9.317698 0.000000 -0.000000 0.000000 -3.082387 -3.352624 -7.791478 0.339285 -4.723373 3.237960 1.602702 -11.131936 -9.130397 0.000000 -0.000000 0.000000 0.928600 -0.988972 -7.666501 1.898107 -0.943825 5.252560 1.294992 -1.525702 -1.361935 -1.007033 -4.156234 -11.196463 -1.453950 -0.488110 -2.492366 -29.721840 4.818181 9.479844 -61.325993 -5.653467 7.868497 11.838121 -23.978948 1.511957 6.385411 -11.681490 -20.270268 27.741720 1.846340 8.352547 52.050242 9.508218 5.388326 -7.359815 9.678314 -16.403816 -0.912880 14.196209 -24.982326 
0.026110 0.348126 0.996854 -3.610322 2.834251 97.499202 3.674530 3.675346 -4.390979 -2.753012 -1.814310 -1.268111 2.738046 4.337424 -9.361662 0.000000 -0.000000 0.000000 -2.452783 -2.763250 -8.035329 0.616064 -3.797716 3.996636 1.885022 -10.891010 -10.231126 0.000000 -0.000000 0.000000 1.006352 -1.141679 -8.314911 2.079559 -0.902642 5.826808 1.276439 -1.591800 -1.497163 -0.779484 -4.042705 -11.392707 -1.828326 -0.291300 -2.620602 -29.890021 5.735712 8.859736 -59.857315 -5.683335 6.540227 13.546209 -23.867838 -1.091204 5.414974 -12.239933 -19.232598 28.243219 1.447336 8.108343 49.979329 10.239397 3.914623 -7.913665 8.279591 -18.807249 1.095048 14.133236 -24.406241 
0.030874 0.347328 0.998496 -3.301583 3.351010 97.848008 3.865857 3.297115 -4.117930 -2.552398 -1.850318 -2.439729 2.376343 4.529277 -8.909132 0.000000 -0.000000 0.000000 -1.655006 -1.901987 -8.398823 0.923443 -3.493784 4.295569 2.146545 -11.158468 -11.169713 0.000000 -0.000000 0.000000 0.997662 -1.486255 -8.788835 2.298915 -0.728357 5.336749 1.222770 -1.645251 -1.522166 -0.291418 -3.703486 -10.852981 -2.173543 -0.621824 -2.818122 -29.529981 7.351459 8.315343 -58.269588 -5.630200 5.465131 15.520426 -24.203534 -3.857849 3.177570 -11.616402 -20.817131 28.640635 0.078517 7.764573 47.846210 11.175867 2.660741 -8.601986 6.901586 -21.053094 1.645736 13.842151 -24.863488 
0.034516 0.347080 0.999275 -2.817911 3.538231 98.205213 3.771929 3.003551 -4.047977 -2.312473 -2.153730 -3.343788 1.893664 4.758494 -8.960064 0.000000 -0.000000 0.000000 -1.098734 -1.344581 -8.642971 1.171689 -3.024406 4.207092 2.576152 -10.778180 -11.543897 0.000000 -0.000000 0.000000 0.577732 -1.718847 -9.605018 2.601214 -0.840410 5.143109 1.294526 -1.794463 -1.236203 -0.191559 -3.670269 -10.493021 -2.367421 -0.903232 -3.425893 -29.070193 8.552359 7.872178 -56.059631 -6.275905 4.102397 17.083722 -23.204618 -7.960963 4.125782 -11.641488 -23.021632 28.857775 -1.075595 7.086505 45.394049 12.026855 1.387669 -9.185576 5.620891 -23.592818 1.080105 13.835157 -26.824930 
0.037077 0.346930 0.999054 -2.408742 3.569387 98.600377 3.669720 2.519810 -4.164615 -2.236549 -2.820397 -3.948201 1.900511 5.563203 -8.776347 0.000000 -0.000000 0.000000 -0.708325 -0.943700 -8.959316 1.433827 -1.662240 3.785519 2.584004 -11.220750 -11.128076 0.000000 -0.000000 0.000000 0.141458 -1.734588 -10.556337 2.776675 -0.929931 4.886736 1.249733 -1.873458 -0.825209 -0.156518 -3.894283 -10.284364 -2.427095 -1.231898 -3.413485 -28.126648 9.136554 7.693886 -53.201142 -6.848659 2.546389 18.265316 -22.052564 -11.742354 6.316004 -10.305352 -24.158707 28.763105 -1.862874 6.617330 42.689930 12.478884 -0.353488 -9.787974 4.504822 -26.583201 0.986643 13.572792 -28.855612 
0.038469 0.346522 0.998817 -2.216594 3.549997 98.477121 3.653626 2.371438 -3.765398 -2.373773 -3.232079 -4.372563 1.817226 5.983776 -8.613452 0.000000 -0.000000 0.000000 -0.349241 -0.798258 -8.650396 1.394734 -1.220483 3.230521 2.756000 -11.829793 -9.682086 0.000000 -0.000000 0.000000 -0.333039 -1.712058 -10.471475 2.917656 -0.957230 4.403799 1.333908 -1.824247 -0.845055 -0.225105 -3.974559 -10.028708 -2.498697 -1.774885 -3.604298 -27.208938 9.466478 7.553013 -49.240905 -7.353620 0.388088 18.989181 -20.572295 -15.690468 6.892517 -9.989725 -25.589247 28.709962 -2.354254 6.274416 39.152087 12.600958 -2.438894 -10.255381 3.204833 -29.533189 0.356165 13.347790 -30.548356 
